<mxfile host="65bd71144e">
    <diagram id="uNK2PuXISu97cv3Ny3dZ" name="Page-1">
        <mxGraphModel dx="694" dy="443" grid="1" gridSize="10" guides="1" tooltips="1" connect="1" arrows="1" fold="1" page="1" pageScale="1" pageWidth="850" pageHeight="1100" math="0" shadow="0">
            <root>
                <mxCell id="0"/>
                <mxCell id="1" parent="0"/>
                <mxCell id="2" value="website list" style="rounded=0;whiteSpace=wrap;html=1;" vertex="1" parent="1">
                    <mxGeometry x="140" y="160" width="120" height="60" as="geometry"/>
                </mxCell>
                <mxCell id="3" value="preset keywords" style="rounded=0;whiteSpace=wrap;html=1;" vertex="1" parent="1">
                    <mxGeometry x="290" y="160" width="120" height="60" as="geometry"/>
                </mxCell>
                <mxCell id="4" value="find interesting articles" style="rounded=0;whiteSpace=wrap;html=1;" vertex="1" parent="1">
                    <mxGeometry x="220" y="270" width="120" height="60" as="geometry"/>
                </mxCell>
                <mxCell id="5" value="web&amp;nbsp;&lt;span style=&quot;background-color: transparent;&quot;&gt;crawler&lt;/span&gt;" style="rounded=0;whiteSpace=wrap;html=1;" vertex="1" parent="1">
                    <mxGeometry x="400" y="270" width="120" height="60" as="geometry"/>
                </mxCell>
                <mxCell id="6" value="save to database" style="rounded=0;whiteSpace=wrap;html=1;" vertex="1" parent="1">
                    <mxGeometry x="220" y="370" width="120" height="60" as="geometry"/>
                </mxCell>
                <mxCell id="7" value="How to maintain,&lt;div&gt;Reduce manual operation&lt;/div&gt;" style="text;html=1;align=center;verticalAlign=middle;whiteSpace=wrap;rounded=0;" vertex="1" parent="1">
                    <mxGeometry x="40" y="142.5" width="60" height="95" as="geometry"/>
                </mxCell>
                <mxCell id="8" value="Correctness" style="text;html=1;align=center;verticalAlign=middle;whiteSpace=wrap;rounded=0;" vertex="1" parent="1">
                    <mxGeometry x="380" y="360" width="60" height="30" as="geometry"/>
                </mxCell>
            </root>
        </mxGraphModel>
    </diagram>
</mxfile>